<?xml version="1.0" encoding="UTF-8"?>
<svg id="Layer_1" xmlns="http://www.w3.org/2000/svg" version="1.1" viewBox="0 0 800 800">
  <!-- Generator: Adobe Illustrator 29.0.1, SVG Export Plug-In . SVG Version: 2.1.0 Build 192)  -->
  <defs>
    <style>
      .st0 {
        fill: #fff;
      }
    </style>
  </defs>
  <path class="st0" d="M615,600c48.1,0,76.9-34.4,76.9-76.9s-28.8-76.9-76.9-76.9h-155.9v153.7h155.9ZM615,332.1c42.3,0,68.1-30.5,68.1-68.1s-25.8-68.1-68.1-68.1h-155.9v136.2h155.9ZM239.5,446.3v38.1h-96.6v-190.3h96.6v38.1h92.3v-136.2H99.3v48.3H2.7V99.3h612.3c95.8,0,173.5,77.7,173.5,173.5,0,42.1-15.2,82.7-43,114.3,32,32.8,51.8,77.8,51.8,127.3,0,100.7-81.6,182.3-182.3,182.3H2.7v-145h96.6v48.3h232.4v-153.7h-92.3Z"/>
</svg>