<?xml version="1.0" encoding="UTF-8"?>
<svg id="Layer_1" xmlns="http://www.w3.org/2000/svg" version="1.1" viewBox="0 0 329.3 447.5">
  <!-- Generator: Adobe Illustrator 29.0.1, SVG Export Plug-In . SVG Version: 2.1.0 Build 192)  -->
  <defs>
    <style>
      .st0 {
        fill: #fff;
      }
    </style>
  </defs>
  <path class="st0" d="M165.9,96.4c-14,0-41.2,7.6-80.8,22.6-22.8,8.6-43.5,17.4-51.4,20.8l-4.2,1.8.5,4.5c2,17,6.6,50.6,15.7,85.3,13.6,52.1,44.8,126.9,116.3,186.6l3.9,3.3,3.9-3.3c71.4-59.7,102.7-134.4,116.3-186.6,9.1-34.7,13.7-68.4,15.7-85.3l.5-4.5-4.2-1.8c-17-7.3-34.1-14.2-51.4-20.8-39.6-15-66.8-22.6-80.8-22.6M165.9,102.5c9.1,0,30.2,3.9,78.7,22.2,22.4,8.5,42.7,17.1,51.2,20.7-3.3,28.5-8.5,56.7-15.6,84.5-13.5,51.6-44.2,124.9-114.3,183.4-70-58.6-100.8-131.9-114.3-183.5-7-27.8-12.2-56-15.5-84.5,8.5-3.6,28.7-12.2,51.2-20.7,48.5-18.4,69.5-22.2,78.7-22.2"/>
  <path class="st0" d="M165.9,140.9l54.3-16.8c-23.1-8-43.7-13.8-54.3-13.8s-31.3,5.8-54.3,13.8l54.3,16.8Z"/>
  <path class="st0" d="M165.9,184.5l77-21.7,40.9,11.6c1.5-9.3,2.6-17.5,3.5-24h-.3c0-.1-44.1,12.3-44.1,12.3l-77-21.7-77.3,21.8,77.3,21.8ZM44.5,150.4c.8,6.5,1.9,14.5,3.4,23.7l40.2-11.4-43.7-12.3ZM51.2,192.7c1.6,8.2,3.4,16.7,5.5,25.5l38.5-11.9,70.6,21.8,70.6-21.8,38.5,11.9c2.1-8.8,3.9-17.3,5.5-25.5l-44,13.6-70.6-21.8-70.6,21.8-44-13.6ZM61.3,236c2.3,8,5,16.3,8.1,25l32.6-11.1,63.9,21.8,64-21.8,32.5,11.1c3.2-8.7,5.8-17,8.1-24.9l-40.5,13.8-64-21.8-63.9,21.8-40.7-13.9ZM165.9,315.3l53-21.8-53-21.8-53,21.8,53,21.8ZM88.1,303.7l24.8-10.2-36.6-15.1c3.5,8.2,7.4,16.7,11.8,25.3M255.5,278.4l-36.6,15.1,24.8,10.2c4.4-8.6,8.4-17,11.8-25.3M165.9,358.9l39.6-21.8-39.6-21.8-39.6,21.8,39.6,21.8ZM230.5,327l-25,10.1,14,6.7c3.5-5.1,7.9-11.7,11.1-16.8M101.3,327l25,10.1-14,6.7c-3.5-5.1-7.9-11.7-11-16.8M163.7,401.3l2.1,1.2,2.1-1.2c9.7-8.6,18.6-17.5,26.8-26.6l-28.9-15.9-28.9,15.9c8.1,9.1,17.1,18,26.8,26.6M139.4,69l-4.4,4.4c7.6,7.6,19.9,7.8,27.7.4v11.5h6.3v-11.5c7.8,7.4,20.1,7.3,27.8-.4l-4.4-4.4c-5.3,5.4-14,5.4-19.4,0-5.4-5.3-5.4-14,0-19.4,5.3-5.4,14-5.4,19.4,0,0,0,0,0,0,0l4.4-4.4c-7.6-7.6-20-7.8-27.8-.4v-11.6h-6.2v11.5c-7.8-7.4-20.1-7.2-27.8.4l4.4,4.4c5.3-5.3,14-5.3,19.4,0s5.3,14,0,19.4c-5.3,5.3-14,5.3-19.4,0"/>
  <path class="st0" d="M13.1,105.4c0,1.2,0,2.5,0,3.7,0,.5.2,54.4,18.9,126.1,14.9,56.9,49.4,137.8,129.4,200.8,0,0,2.1,1.7,4.5,3.4,2.4-1.7,4.5-3.3,4.5-3.4,80-63,114.6-143.9,129.4-200.8,18.7-71.7,18.9-125.5,18.9-126.1v-3.7c-3-2.5-14-12.1-18.5-15.9C238.7,38.6,168.8,13,168.2,12.7l-2.3-.8-2.2.8c-.7.3-70.6,25.9-132.2,76.8-4.5,3.7-15.5,13.3-18.4,15.9M166.6,444.4h-1.4l-.6-.4c-3-2-5.9-4.4-6.1-4.4-81-63.8-116-145.7-131-203.3C8.7,164.1,8.5,109.7,8.5,109.1c0-3.4.1-5,.1-5v-.9c0,0,.8-.6.8-.6.1-.1,14-12.3,19.2-16.6C91.1,34.4,161.5,8.6,162.2,8.4l3.7-1.4,3.8,1.4c.6.2,71,25.9,133.5,77.6,5.3,4.3,19.1,16.4,19.2,16.6l.7.6v.9c0,0,.2,1.7.2,5.1s-.2,55-19.1,127.2c-15,57.5-50,139.5-131,203.3-.1,0-3,2.4-6.1,4.4l-.6.4Z"/>
</svg>