<?xml version="1.0" encoding="UTF-8"?>
<svg id="Layer_1" xmlns="http://www.w3.org/2000/svg" version="1.1" viewBox="0 0 800 800">
  <!-- Generator: Adobe Illustrator 29.0.1, SVG Export Plug-In . SVG Version: 2.1.0 Build 192)  -->
  <defs>
    <style>
      .st0 {
        fill: #fff;
      }
    </style>
  </defs>
  <g id="Layer_11" data-name="Layer_1">
    <path class="st0" d="M662.3,448.7c-13.3-4.2-28.8-12.4-47.6-32.2,1.2-8.8,1.8-14.6,1.2-20-.6-5.2-2.4-8.8-4.6-14-2.4-5.2-5.2-10-7-17.6s-3-18.2-1.2-35.2,1.2-44.6-5.8-74.3c-7-30-21.2-62.2-45.2-89.2,6.4-20,10-34,10.6-45.2s-1.2-19.4-5.8-29.4c-4.6-9.4-16.4-17.6-34-22.8s-40.3-8.2-66.7-8.2-64.6,2.4-95.6,1.8c-30.9-.6-56.4-3-56.4-11.2s4.2-11.8,10-14,13.3-2.4,19.4-3c8.8,3.6,21.8,5.8,34.6,6.4,13,1.2,27,1.2,37.6,1.2s21.2-3.6,32.2-6.4c10.6-3,22.1-6.4,35.2-6.4-11.2-3.6-25.2-8.8-39.7-13-14.6-4.2-29.4-6.4-41.6-3.6-4.6-4.2-7.6-7.6-13-8.8-5.2-1.2-12.4-1.2-24,2.4-11.8,3-19.4,4.2-25.2,5.2-6.4.6-11.2,1.2-18.8,3s-17.6,3-25.8,7c-8.2,4.2-14.6,10.6-14.6,23.4s4.6,23.4,17,30.9c13,7.6,34,12.4,67.3,11.8,34-.6,71-1.2,101.3,0,30.6,1.8,54.6,5.8,62.8,15.2s10.6,15.8,9.4,21.2-5.8,9.4-11.8,14.6c-5.2,0-14,.6-25.2,0-10.6-.6-22.8-3-34-7.6-11.2-5.2-24-8.2-37.6-8.2s-26.4,2.4-37,8.8c-11.2,5.8-38.2,19.4-65.5,39.1-28.2,20.9-56.7,48.5-69.8,84.3-13.3,35.8-20,57.9-24,74-4.2,15.8-5.2,24-8.2,32.2s-7.6,16.4-11.8,25.8c-4.2,9.4-7.6,19.4-7,30.9,0,11.8-.6,25.8-2.4,39.1s-3.6,26.4-5.2,35.8c-1.8,9.4-4.6,20.6-7,33.4-2.4,13-4.2,26.4-3.6,41,0,14.6-.6,29.4-3,43.4-1.8,14-5.2,27-9.4,38.2-4.2,11.2-5.8,20.6-7,30-1.8,8.8-3.6,17.6-8.2,26.4-5.2,8.8-11.8,20-18.8,30.6s-13.3,20.6-18.8,27.6c-5.2,6.4-7.6,14.6-5.8,21.2s7,11.8,18.2,13,20.6-1.2,27.6-5.8c7-4.6,11.8-11.2,13-18.8,1.2-7.6,1.2-17.6,1.8-28.2.6-10.6,1.2-21.2,4.6-29.4l3.6-8.8,3.6-8.8c3.6-5.8,5.8-8.2,8.8-10,2.4-1.8,5.2-3.6,8.8-7.6,3.6-4.2,9.4-17,14-30.6,4.6-13.3,8.8-28.8,8.2-39.1,0-10.6.6-18.8,2.4-25.2,1.8-7,4.2-12.4,7-17.6,3-5.2,4.6-11.2,7-15.8,3-4.6,6.4-7.6,13-7,6.4.6,8.8,4.2,9.4,8.2s.6,9.4,3,14,4.6,9.4,7.6,13.3c3,4.2,7,7.6,13.3,10,5.8,2.4,10.6,6.4,13.3,11.8,2.4,5.2,2.4,11.2-1.2,16.4-3.6,5.2-8.8,14-13,23.4-4.2,9.4-7,18.2-7,24s1.2,14.6,0,24c-1.2,9.4-3.6,18.8-11.2,26.4-7,7.6-13,15.2-17,21.8-4.2,6.4-5.8,12.4-5.8,15.8s1.8,8.2,5.2,12.4c4.2,4.2,10,6.4,20,6.4s17-2.4,22.1-5.8c5.2-3.6,8.8-8.8,11.2-15.2,2.4-6.4,1.8-11.8.6-15.8-1.2-4.2-2.4-7.6-2.4-12.4s1.2-9.4,3-15.2c1.8-5.2,3.6-11.2,4.2-16.4.6-5.2,1.8-11.8,4.2-18.8s5.8-14.6,11.8-22.8c5.8-8.2,8.8-15.2,11.8-21.8,3-6.4,4.6-11.8,8.2-17,3.6-5.2,5.2-7.6,6.4-8.8,1.2-.6,3,.6,6.4,2.4,3.6,2.4,4.6,4.2,3.6,7-.6,2.4-3,5.8-5.2,9.4-2.4,3.6-6.4,10-11.2,17-4.6,6.4-9.4,14-12.4,18.8-3,5.2-4.6,11.8-3.6,17.6,1.2,5.8,4.6,10,13,10.6,8.2.6,14.6.6,18.8-.6,4.6-1.2,7-4.2,7.6-8.2.6-4.6,1.8-11.8,4.2-18.8,1.8-7,4.2-14,7-18.8s4.6-8.8,5.8-12.4c1.2-3.6,1.2-6.4,1.2-8.8,4.6,4.2,8.2,9.4,11.8,14.6,3,5.2,5.8,10.6,8.2,15.8s7.6,11.2,17,15.8,22.8,7.6,41,7c18.2-1.2,27.6-1.8,32.8-3.6,5.2-1.8,6.4-4.2,8.2-8.8,2.4-4.6,7-13.3,9.4-22.1,2.4-8.8,2.4-18.2-5.8-23.4,1.2-7.6,3.6-17.6,6.4-27,3-9.4,7.6-18.8,13.3-25.2,5.8-5.8,14-12.4,21.2-17.6,7-5.2,13.3-10.6,15.2-14,9.4,5.2,18.8,11.2,25.2,20.6,7,9.4,11.2,21.2,12.4,37.6,0,8.8,1.2,17,3,24.6,1.2,7,3,13.3,3.6,17.6.6,4.6.6,9.4,1.2,14,0,5.2,0,10,1.2,15.2s4.2,10,8.2,13c4.2,3.6,9.4,5.2,14,4.2,4.6-.6,8.2-4.6,11.2-10,3-5.2,4.6-11.8,4.6-16.4s-1.8-8.8-3.6-11.8c-2.4-3-4.6-5.2-7-7s-3.6-4.2-4.2-7,0-6.4,2.4-12.4c2.4-5.8,1.8-11.2,0-15.2-1.8-4.2-4.2-7.6-6.4-10-2.4-2.4-4.6-8.2-7-16.4-1.8-8.2-3-18.2-3-27.6s-.6-20.6-3.6-30.6c-3-9.4-7-17.6-13-21.2,17-1.2,36.4-2.4,53.4-7.6s32.2-14,41-29.4c-7.6-1.8-18.8-.6-32.2-4.9ZM607.7,466.9c-15.2-3.6-28.2-10-34.6-17.6-3.6-4.2-8.2-8.2-13-11.2-5.2-3-10.6-5.2-15.8-7-5.2-1.2-13.3-4.6-22.1-8.2s-17-7.6-22.1-10c-1.2,2.4-3.6,5.2-7,8.8-3.6,3.6-8.2,8.2-14,13-5.2,4.6-6.4,8.8-6.4,11.8.6,3,3,5.8,4.2,8.2,1.8,2.4,8.2,7.6,15.2,14,7,5.8,14.6,11.8,17,14.6-8.2,0-14-.6-21.2-3-7-2.4-14.6-6.4-27.6-14.6s-17-16.4-17-24,3.6-13.3,5.2-15.8c1.8-2.4,6.4-6.4,11.2-10,4.6-3.6,9.4-7,11.2-8.8s3.6-3.6,3-5.2c0-1.8-1.8-3-4.6-2.4-21.8,3.6-37,9.4-47,15.8-10,6.4-14,13-14.6,17.6s.6,8.8,2.4,13c1.8,4.2,5.2,8.2,10,12.4,4.6,4.2,6.4,10,5.8,15.2,0,5.2-2.4,10-4.6,13-3,3-4.2,4.6-5.2,6.4-1.2,1.8-1.8,5.2-3.6,11.2s-3,17-3.6,29.4c-.6,12.4-.6,24.6,0,33.4,3-4.6,7-8.8,11.2-11.8s8.8-4.6,11.8-5.8c2.4,22.8,1.2,38.8-1.2,50.4-1.8,11.8-5.2,19.4-7,25.8-.6,1.8-1.2,3-2.4,2.4-1.2,0-2.4-1.2-3-3.6-1.8-5.2-4.6-13.3-8.2-21.2-3.6-7.6-7.6-14.6-11.8-18.2-11.2-11.2-16.4-17-18.8-21.8s-1.8-8.2-1.8-15.2c-17.6-8.8-23.4-19.4-23.4-30s5.2-19.4,10-26.4c4.6-6.4,8.2-14.6,11.2-22.1s4.2-14,4.6-18.2c.6-4.2-1.8-11.8-4.6-19.4-3.6-7.6-7.6-15.8-13-21.8-1.2-.6-4.2-1.2-7.6-.6-3.6.6-7,2.4-9.4,7.6-2.4,5.2-5.8,8.2-8.8,9.4-3.6,1.2-7,1.8-10.6,1.2-3.6-.6-8.2-.6-12.4,0s-8.2,3-11.2,7c-3,4.2-6.4,4.2-10.6,3-3.6-1.2-7.6-3.6-10.6-5.2-3-1.2-4.6-3-7-4.2s-5.2-1.8-11.8-1.2c-6.4.6-8.8,4.6-10.6,10-2.4,4.6-4.2,10-9.4,11.2-5.2,1.8-9.4-1.2-11.8-7s-3-14-3-22.8c-1.8-11.2,2.4-28.8,7.6-45.2s11.8-31.6,15.2-39.1c3-7.6,8.2-21.8,13-38.2,5.2-15.8,10-33.4,13.3-47,3.6-13.3,11.2-23.4,21.2-32.8,10-9.4,20.6-17.6,30.6-27.6,10-10,21.8-18.8,33.4-25.2,11.8-6.4,23.4-10.6,32.2-10.6s18.2,5.2,25.8,10.6c7.6,5.8,14,11.8,17,15.2,3,3.6,5.8,11.2,8.8,19.4s5.8,17,9.4,22.1c3.6,5.2,6.4,13,8.8,22.1,2.4,9.4,4.6,20,6.4,30,1.8,10.6,5.8,17.6,10,23.4s8.8,10.6,11.8,15.8,6.4,17.6,10.6,30.9c4.2,13.3,9.4,28.8,15.8,38.8,6.4,10,16.4,17,26.4,21.2,10,4.6,19.4,6.4,24,8.2,4.6,1.2,8.2,1.8,11.8,3.6,3.6,1.8,7.6,5.2,13.3,12.4,8.2,9.4,20.6,17.6,32.2,23.4s22.1,9.4,27,11.2c-13.3,8.8-30.3,8.8-45.5,5.8Z"/>
  </g>
</svg>