<?xml version="1.0" encoding="UTF-8"?>
<svg id="Layer_1" xmlns="http://www.w3.org/2000/svg" version="1.1" viewBox="0 0 800 800">
  <!-- Generator: Adobe Illustrator 29.0.1, SVG Export Plug-In . SVG Version: 2.1.0 Build 192)  -->
  <defs>
    <style>
      .st0 {
        fill: #fff;
      }
    </style>
  </defs>
  <g id="_x23_ee2629ff">
    <path class="st0" d="M552.8,192.6c35-6.2,70.7-7.1,106-7.6,35.3-.3,72.1,3.5,103.7,20.9,28.9,11.8,44.8,47.1,34.1,76.9-13.8,45.6-46.5,82.2-79.8,114.9-84.2,86.9-188.8,149.3-289.2,215.3,16.8-24.5,30.6-51.2,40.9-78.9,7.9-21.8,15.6-44.4,16.5-68.1,1.2-24.2-3.8-50-19.4-69.2-15.6-17.7-38-28.3-60.4-34.5-32.4-9.2-66.6-10.1-100.2-10.1-76.3.6-152,13-226.5,28.3C52.4,385.2,26.8,393.1,0,394.3c22.7-7.4,42.7-20.6,64.2-31.2,100.4-51,204.4-95.1,311.9-128.7,57.7-18.3,116.9-31.5,176.7-41.8Z"/>
  </g>
</svg>