<?xml version="1.0" encoding="UTF-8"?>
<svg id="Layer_1" xmlns="http://www.w3.org/2000/svg" version="1.1" viewBox="0 0 360.4 425.2">
  <!-- Generator: Adobe Illustrator 29.0.1, SVG Export Plug-In . SVG Version: 2.1.0 Build 192)  -->
  <defs>
    <style>
      .st0 {
        fill: #fff;
      }
    </style>
  </defs>
  <path class="st0" d="M336,29c-51.3-14.4-107.1-22.7-162.2-22.6-55.1-.1-110.9,8.2-162.2,22.6-3.6,1-6.1,4.3-6.1,8-.1,137.2,51.5,307,163.6,382,2.8,1.9,6.5,1.9,9.3,0,112.2-74.9,163.7-244.7,163.6-382,0-3.7-2.5-7-6.1-8h0ZM241.1,300.5c-17.6,29.9-38.8,56.3-63.8,77-2,1.7-5,1.7-7,0-68.4-56.5-108.3-156.1-123.5-252.1l-17.4-9.3h129c41.5,0,46.7,13.5,46.7,23.2s-5.3,23.2-46.7,23.2h-37.7c-1.3,0-2.4,1.1-2.4,2.4,0,0,0,0,0,0,0,.6.2,1.1.7,1.7l140,140-17.9-6.1h0ZM264.2,254.8l-75.4-75.4c-.7-.7-.7-1.9,0-2.6.3-.3.7-.5,1.1-.5l14.7-1.6c31.1-3.4,49-18.9,49-38.5s-24-35.4-64.1-35.4H43.5c-1.5-12.3-2.5-24.7-3.1-37.2-.2-4,2.5-7.5,6.3-8.5,42-9.7,85-14.7,126-14.7h2.2c41,0,84.1,5,126,14.7,3.9.9,6.6,4.5,6.4,8.5-3.1,62.2-17.2,130.7-43.2,191.1h0Z"/>
</svg>